<?xml version="1.0" encoding="UTF-8" standalone="no"?>
<svg xmlns="http://www.w3.org/2000/svg" width="256" height="252" viewBox="0 0 256 252">
  <path d="M235.648,194.212 C221.729,193.864 210.942,195.777 201.895,200.338 C199.285,201.662 195.109,201.663 194.744,204.941 C196.079,206.291 196.248,208.398 197.451,210.066 C199.537,213.153 202.852,217.277 205.961,219.516 C209.362,221.952 212.854,224.378 216.437,226.648 C222.731,230.469 229.996,232.631 236.115,236.45 C239.574,238.595 243.022,241.254 246.431,243.534 C248.13,244.875 249.096,246.957 251.23,247.75 L251.23,247.397 C249.938,245.776 249.625,243.49 248.335,241.731 C246.662,239.975 244.964,238.365 243.335,236.58 C238.559,230.584 232.929,225.279 226.853,220.846 C221.997,217.301 211.881,212.464 209.734,206.958 C209.682,206.857 209.64,206.757 209.588,206.656 C213.082,206.286 217.12,205.15 220.367,204.115 C226.031,202.338 231.178,202.639 236.999,200.85 C239.889,199.963 242.775,198.914 245.672,197.884 L245.672,196.246 C243.042,193.639 241.171,190.225 238.549,187.624 C231.852,180.977 224.678,174.469 217.124,168.868 C213.01,165.726 207.636,163.654 203.16,161.066 C201.57,160.139 199.237,159.669 198.272,158.35 C196.236,155.691 195.07,152.362 193.45,149.352 C190.11,143.174 186.839,136.259 183.822,129.824 C181.521,124.934 179.808,120.214 177.071,115.699 C166.223,99.443 154.524,89.1 136.339,78.188 C131.233,75.32 125.099,73.926 118.921,72.306 C114.729,72.046 110.51,71.774 106.32,71.514 C104.107,70.627 101.879,68.202 99.833,67.055 C93.104,63.205 76.111,54.047 71.146,70.2 C67.836,80.755 76.67,91.401 80.287,97.127 C82.918,101.212 86.22,105.827 88.081,110.251 C89.223,113.079 89.513,115.935 90.659,118.895 C93.203,126.253 95.649,134.262 99.043,141.181 C100.777,144.693 102.717,148.344 104.942,151.461 C106.3,153.264 108.373,154.183 109.08,156.767 C106.43,160.276 106.279,165.627 104.347,169.784 C98.758,183.315 100.797,200.171 108.644,209.788 C110.959,212.682 116.27,218.775 123.007,216.712 C128.922,214.879 127.756,207.434 129.338,200.902 C129.748,199.015 129.435,197.595 130.137,196.187 L130.137,196.539 C132.759,201.788 135.387,206.82 137.834,212.079 C143.038,221.498 151.992,231.188 161.022,237.373 C165.172,240.214 168.342,245.101 173.35,246.669 L173.35,246.316 L173.002,246.316 C171.935,244.66 170.132,243.921 168.624,242.621 C165.527,239.825 162.214,236.58 159.638,233.469 C152.175,224.51 145.647,214.663 139.908,204.421 C137.128,199.508 134.687,194.165 132.297,189.253 C131.544,187.598 131.545,185.059 130.137,184.169 C127.905,187.157 124.51,189.734 122.659,193.242 C119.562,199.141 119.122,206.201 118.225,213.958 C117.671,214.088 117.889,214.028 117.671,214.258 C112.422,213.15 110.767,207.531 108.992,202.974 C104.413,191.174 103.707,173.673 108.644,160.048 C110.09,156.389 116.675,144.184 114.173,140.781 C113.055,137.618 109.68,135.655 107.958,133.06 C105.928,129.953 103.735,126.015 102.275,122.604 C98.318,113.198 96.228,102.589 91.703,93.181 C89.495,88.681 85.847,84.208 82.927,80.055 C79.729,75.541 76.13,72.072 73.541,66.877 C72.742,65.208 71.654,62.571 72.742,60.847 C73.108,59.539 73.822,58.926 74.932,58.577 C77.129,56.949 83.543,59.205 85.88,60.146 C92.115,62.533 97.446,64.89 102.797,68.041 C105.387,69.671 108.057,72.694 111.168,73.582 L114.628,73.582 C120.543,74.818 127.072,73.908 132.645,75.495 C142.115,78.252 150.664,82.777 158.432,87.628 C180.043,102.152 196.806,122.539 207.304,147.184 C208.91,150.691 209.673,153.979 211.127,157.657 C214.016,165.154 217.632,172.926 220.541,180.299 C223.45,187.671 226.302,195.111 230.585,201.358 C232.746,204.699 241.645,206.426 246.08,208.299 C249.175,209.698 253.864,211.056 256.666,212.83 C262.079,216.302 267.373,220.311 272.496,224.131 C275.058,226.047 282.106,229.854 282.523,233.469 L235.648,194.212 L235.648,194.212 Z" fill="#00546B"/>
  <path d="M58.665,43.565 C54.931,43.565 52.1,44.194 49.4,45.309 C49.4,45.309 49.4,45.309 49.4,45.661 L49.748,45.661 C51.054,48.327 53.341,50.109 54.583,52.599 C55.65,55.414 56.717,58.229 57.784,61.044 C57.85,60.996 57.915,60.948 57.981,60.9 C60.621,58.936 61.972,55.94 61.972,51.664 C60.906,50.007 60.731,48.35 59.732,46.693 C58.909,45.309 57.086,44.549 58.665,43.565 L58.665,43.565 Z" fill="#00546B"/>
</svg>
