<?xml version="1.0" encoding="UTF-8" standalone="no"?>
<svg xmlns="http://www.w3.org/2000/svg" width="256" height="256" viewBox="0 0 256 256">
  <defs>
    <linearGradient id="a" x1="82.42%" x2="57.93%" y1="92.11%" y2="64.56%">
      <stop offset="0%" stop-color="#97D9F6"/>
      <stop offset="92.03%" stop-color="#0F80CC"/>
      <stop offset="100%" stop-color="#0F80CC"/>
    </linearGradient>
  </defs>
  <path fill="#0F80CC" d="M122.63,250.93c-28.65,0-51.89-4.67-51.89-10.4v-75.6c0,5.73,23.24,10.4,51.89,10.4s51.89-4.67,51.89-10.4v75.6c0,5.73-23.24,10.4-51.89,10.4Z"/>
  <path fill="url(#a)" d="M122.63,175.33c28.65,0,51.89-4.67,51.89-10.4s-23.24-10.4-51.89-10.4-51.89,4.67-51.89,10.4,23.24,10.4,51.89,10.4Z"/>
  <path fill="#003B57" d="M122.63,154.53c28.65,0,51.89-4.67,51.89-10.4v-75.6c0,5.73-23.24,10.4-51.89,10.4s-51.89-4.67-51.89-10.4v75.6c0,5.73,23.24,10.4,51.89,10.4Z"/>
  <path fill="url(#a)" d="M122.63,78.93c28.65,0,51.89-4.67,51.89-10.4s-23.24-10.4-51.89-10.4-51.89,4.67-51.89,10.4,23.24,10.4,51.89,10.4Z"/>
  <path fill="#003B57" d="M122.63,58.13c28.65,0,51.89-4.67,51.89-10.4V15.47c0-5.73-23.24-10.4-51.89-10.4s-51.89,4.67-51.89,10.4v32.27c0,5.73,23.24,10.4,51.89,10.4Z"/>
  <path fill="url(#a)" d="M122.63,15.47c28.65,0,51.89,4.67,51.89,10.4s-23.24,10.4-51.89,10.4-51.89-4.67-51.89-10.4,23.24-10.4,51.89-10.4Z"/>
</svg>
