<?xml version="1.0" encoding="UTF-8" standalone="no"?>
<svg xmlns="http://www.w3.org/2000/svg" width="432.071" height="445.383" viewBox="0 0 432.071 445.383">
  <g id="Layer_1" transform="translate(-30.269 -23.568)">
    <path d="M402.395,271.23c-50.302,10.376-53.76-6.655-53.76-6.655,53.111-78.808,75.313-178.843,56.153-203.326-52.27-66.785-142.752-35.2-144.262-34.38l-.486.087c-9.938-2.063-21.06-3.292-33.56-3.496-22.761-.373-40.026,5.967-53.127,15.902,0,0-161.411-66.495-153.904,83.63,1.597,31.938,45.776,241.657,98.471,178.312,19.26-23.163,37.869-42.748,37.869-42.748,9.243,6.14,20.308,9.272,31.908,8.147l.9-.099c-.287,2.355-.479,4.693-.555,7.023-2.21,1.525-1.91,4.583-.501,6.951,3.661,6.13,19.301,16.12,38.157,2.76,7.8-5.534,15.24-18.195,17.961-28.187,5.429-1.844,11.389-4.387,17.627-8.437,0,0,17.789,73.218,56.366,68.612,30.265-3.607,48.39-24.268,52.397-33.912,4.536-10.903,8.116-36.092,8.669-64.622.337-17.026.673-33.115.675-45.244.008-33.803-2.658-31.848-19.243-23.283ZM316.229,413.9c-30.669,3.655-46.534-16.666-56.271-48.695-4.102-13.464-8.578-31.888-11.045-47.02-2.511-15.43-3.362-28.628-2.286-34.047,1.087-5.494,1.33-12.205,6.277-15.823,5.224-3.832,10.144-1.726,15.298.621,4.729,2.161,9.315,5.043,13.708,8.244,4.506,3.283,8.91,6.863,13.105,10.668,4.153,3.768,8.296,7.639,11.967,11.905,3.755,4.367,6.965,9.096,9.313,14.238,2.438,5.31,4.014,10.96,4.59,16.729.602,6.007.18,12.115-1.238,17.972-1.431,5.893-3.78,11.549-6.97,16.708-3.143,5.093-7.093,9.706-11.722,13.683-4.596,3.95-9.845,7.282-15.726,9.815Z" fill="#336791"/>
    <path d="M402.395,271.23c-50.302,10.376-53.76-6.655-53.76-6.655,53.111-78.808,75.313-178.843,56.153-203.326-52.27-66.785-142.752-35.2-144.262-34.38l-.486.087c-9.938-2.063-21.06-3.292-33.56-3.496-22.761-.373-40.026,5.967-53.127,15.902,0,0-161.411-66.495-153.904,83.63,1.597,31.938,45.776,241.657,98.471,178.312,19.26-23.163,37.869-42.748,37.869-42.748,9.243,6.14,20.308,9.272,31.908,8.147l.9-.099c-.287,2.355-.479,4.693-.555,7.023-2.21,1.525-1.91,4.583-.501,6.951,3.661,6.13,19.301,16.12,38.157,2.76,7.8-5.534,15.24-18.195,17.961-28.187,5.429-1.844,11.389-4.387,17.627-8.437,0,0,17.789,73.218,56.366,68.612,30.265-3.607,48.39-24.268,52.397-33.912,4.536-10.903,8.116-36.092,8.669-64.622.337-17.026.673-33.115.675-45.244.008-33.803-2.658-31.848-19.243-23.283ZM316.229,413.9c-30.669,3.655-46.534-16.666-56.271-48.695-4.102-13.464-8.578-31.888-11.045-47.02-2.511-15.43-3.362-28.628-2.286-34.047,1.087-5.494,1.33-12.205,6.277-15.823,5.224-3.832,10.144-1.726,15.298.621,4.729,2.161,9.315,5.043,13.708,8.244,4.506,3.283,8.91,6.863,13.105,10.668,4.153,3.768,8.296,7.639,11.967,11.905,3.755,4.367,6.965,9.096,9.313,14.238,2.438,5.31,4.014,10.96,4.59,16.729.602,6.007.18,12.115-1.238,17.972-1.431,5.893-3.78,11.549-6.97,16.708-3.143,5.093-7.093,9.706-11.722,13.683-4.596,3.95-9.845,7.282-15.726,9.815Z" fill="none" stroke="#fff" stroke-width="12" stroke-linecap="round" stroke-linejoin="round"/>
  </g>
</svg>
